<?xml version="1.0" encoding="utf-8"?>
<svg xmlns="http://www.w3.org/2000/svg"
	xmlns:xlink="http://www.w3.org/1999/xlink"
	width="18px" height="23px" viewBox="0 0 18 23">
<path fillRule="evenodd" d="M 18 19.88C 18 19.88 16.71 5.05 16.71 5.05 16.68 4.72 16.41 4.47 16.09 4.47 16.09 4.47 13.44 4.47 13.44 4.47 13.41 2 11.43-0 9-0 6.57-0 4.59 2 4.56 4.47 4.56 4.47 1.91 4.47 1.91 4.47 1.59 4.47 1.32 4.72 1.29 5.05 1.29 5.05 0 19.88 0 19.88 0 19.9-0 19.92-0 19.94-0 21.63 1.51 23 3.38 23 3.38 23 14.62 23 14.62 23 16.49 23 18 21.63 18 19.94 18 19.92 18 19.9 18 19.88ZM 9 1.27C 10.74 1.27 12.16 2.7 12.2 4.47 12.2 4.47 5.8 4.47 5.8 4.47 5.84 2.7 7.26 1.27 9 1.27ZM 14.62 21.73C 14.62 21.73 3.38 21.73 3.38 21.73 2.21 21.73 1.26 20.94 1.24 19.97 1.24 19.97 2.47 5.75 2.47 5.75 2.47 5.75 4.55 5.75 4.55 5.75 4.55 5.75 4.55 7.68 4.55 7.68 4.55 8.03 4.83 8.31 5.17 8.31 5.52 8.31 5.79 8.03 5.79 7.68 5.79 7.68 5.79 5.75 5.79 5.75 5.79 5.75 12.2 5.75 12.2 5.75 12.2 5.75 12.2 7.68 12.2 7.68 12.2 8.03 12.48 8.31 12.82 8.31 13.17 8.31 13.44 8.03 13.44 7.68 13.44 7.68 13.44 5.75 13.44 5.75 13.44 5.75 15.52 5.75 15.52 5.75 15.52 5.75 16.76 19.97 16.76 19.97 16.74 20.94 15.79 21.73 14.62 21.73Z" fill="rgb(101,101,101)"/></svg>