<?xml version="1.0" encoding="utf-8"?>
<svg xmlns="http://www.w3.org/2000/svg"
	xmlns:xlink="http://www.w3.org/1999/xlink"
	width="20px" height="20px" viewBox="0 0 20 20">
<path fillRule="evenodd" d="M 19.74 18C 19.74 18 14.94 13.51 14.94 13.51 16.13 12.16 16.85 10.42 16.85 8.53 16.85 4.19 13.07 0.67 8.42 0.67 3.77 0.67-0 4.19-0 8.53-0 12.87 3.77 16.39 8.42 16.39 10.45 16.39 12.31 15.72 13.76 14.61 13.76 14.61 18.56 19.09 18.56 19.09 18.89 19.4 19.42 19.4 19.74 19.09 20.07 18.79 20.07 18.3 19.74 18ZM 8.42 14.82C 4.7 14.82 1.67 12 1.67 8.53 1.67 5.06 4.7 2.23 8.42 2.23 12.14 2.23 15.17 5.06 15.17 8.53 15.17 12 12.14 14.82 8.42 14.82Z"/></svg>