<?xml version="1.0" encoding="utf-8"?>
<svg xmlns="http://www.w3.org/2000/svg"
	xmlns:xlink="http://www.w3.org/1999/xlink"
	width="21px" height="21px" viewBox="0 0 21 21">
<path fillRule="evenodd" d="M 13.89 12.77C 15.73 11.64 16.94 9.64 16.94 7.31 16.94 3.78 14.05 0.89 10.52 0.89 6.99 0.89 4.1 3.78 4.1 7.31 4.1 9.64 5.31 11.64 7.15 12.77 3.94 13.97 1.54 16.78 0.9 20.15 0.9 20.15 2.5 20.15 2.5 20.15 3.3 16.46 6.59 13.73 10.52 13.73 14.45 13.73 17.74 16.46 18.54 20.15 18.54 20.15 20.15 20.15 20.15 20.15 19.5 16.7 17.1 13.89 13.89 12.77ZM 5.71 7.31C 5.71 4.66 7.87 2.5 10.52 2.5 13.17 2.5 15.33 4.66 15.33 7.31 15.33 9.96 13.17 12.12 10.52 12.12 7.87 12.12 5.71 9.96 5.71 7.31Z"/></svg>